<?xml version="1.0" encoding="utf-8"?>
<!-- Svg Vector Icons : http://www.onlinewebfonts.com/icon -->
<!DOCTYPE svg PUBLIC "-//W3C//DTD SVG 1.1//EN" "http://www.w3.org/Graphics/SVG/1.1/DTD/svg11.dtd">
<svg version="1.1" xmlns="http://www.w3.org/2000/svg" xmlns:xlink="http://www.w3.org/1999/xlink" x="0px" y="0px" viewBox="0 0 256 256" enable-background="new 0 0 256 256" xml:space="preserve">
<metadata> Svg Vector Icons : http://www.onlinewebfonts.com/icon </metadata>
<g><g><g><path fill="#000000" d="M72.5,63c-7.8,2.8-9.9,12.7-3.8,18c2.1,1.8,3.8,2.6,6.7,3.1l2,0.3v-1.6c0-1.5-0.1-1.7-1.9-2c-7.6-1.3-9.6-10.5-3.1-14.2c1.7-1,2.4-1.1,10.2-1.1c4.6,0,8.3,0.2,8.3,0.4c0,0.9-26.5,62.9-28,65.5c-2.3,4-7.7,11-10,13c-2.2,1.9-2.5,3.9-1.1,5.2c1.8,1.6,3.3,1,7.1-2.9c7-7.1,9.4-11.5,18.3-32.6c4.4-10.3,8.1-19.1,8.4-19.5c0.3-0.5,6.2,6.3,21.6,25c20.8,25.1,21.3,25.7,20.7,26.9c-0.3,0.8-0.7,2.3-0.8,3.6l-0.3,2.2l-5.4,2l-5.4,2l-0.1,3.3l-0.1,3.4h2.8h2.8l0.1-2.7l0.1-2.6l3.1-1l3.1-1.1l1.6,2.2c4.2,5.6,12.7,6,17.3,0.7c0.9-1,1.9-2.2,2.1-2.6c0.4-0.7,4.2-1.1,26-3.1c14.1-1.3,25.9-2.4,26.4-2.6c0.4-0.2,1-0.9,1.3-1.7c0.5-1.1,0.5-1.5-0.3-2.6c-0.5-0.8-9.3-11.7-19.6-24.4c-10.4-12.8-18.9-23.4-19-23.7c0-0.3,1.6-5,3.7-10.4c2.1-5.4,3.8-10.3,3.8-10.8c0-1.4-0.9-2.5-2.4-2.8c-2.3-0.6-3.3,1.1-7,11.1c-1.9,5.1-3.7,9.3-3.9,9.3c-0.9,0-64.6-15.4-64.8-15.7c-0.2-0.1,0.9-3.1,2.3-6.6c1.5-3.5,2.7-6.7,2.7-7c0-0.4-0.4-1.1-0.9-1.6c-0.9-0.9-1.5-0.9-11.8-0.9C77.2,62.4,73.9,62.6,72.5,63z M117.4,90.9c14,3.4,28.4,6.8,32,7.6c5.9,1.4,6.4,1.6,6.2,2.4c-0.1,0.5-3.5,9.4-7.5,19.7l-7.2,18.8l-2.9,0.3c-1.5,0.2-3.3,0.6-3.8,0.8c-0.6,0.3-1.1,0.5-1.1,0.4c-0.1-0.1-9.9-11.9-21.9-26.4L89.5,88.5l0.8-1.8c0.4-1,1-1.8,1.2-1.8C91.7,84.8,103.3,87.6,117.4,90.9z M180.3,128.2c12.9,15.9,13.3,16.4,12.1,16.8c-0.7,0.2-9.9,1.1-20.5,2c-10.6,0.9-19.9,1.8-20.7,1.9c-1.1,0.1-1.5,0-1.5-0.4c0-0.3-0.8-1.8-1.6-3.3l-1.6-2.7l6.8-17.7c3.8-9.7,7-18.3,7.3-19l0.5-1.3l3,3.7C165.6,110.2,172.9,119.2,180.3,128.2z"/><path fill="#000000" d="M162.7,120.2c-4.3,5.8-7.7,14.3-8.5,21.1l-0.4,2.7l3-0.3c1.6-0.2,3.1-0.4,3.1-0.4s0.4-1.7,0.8-3.8c1-4.9,3.1-9.9,6-14.1c1.4-2.1,2.2-3.7,2-4c-0.7-1.2-3.2-4.1-3.5-4.1C165,117.2,163.9,118.6,162.7,120.2z"/><path fill="#000000" d="M169.6,127.9c-0.6,0.6-0.1,1,3.8,3.5c5.7,3.6,5.6,3.6,4.3,1.9C176.5,131.8,170.1,127.4,169.6,127.9z"/><path fill="#000000" d="M164.5,141c-0.8,0.8,0,1.1,3.3,1c2.9,0,3.3-0.1,2-0.4C166.5,140.9,164.8,140.7,164.5,141z"/><path fill="#000000" d="M158.8,65.6c-3.3,0.4-4.8,1.3-5.3,2.8c-0.6,2.2,0.3,2.4,10.2,2.6l9.2,0.1l3.4,1.6c3,1.4,3.7,1.5,5.9,1.3c5.2-0.7,8.8-1.7,9.3-2.7c0.8-1.4-0.3-3.4-2.3-4.7c-1.6-1-2.1-1.1-14.6-1.1C167.4,65.3,160.4,65.4,158.8,65.6z"/><path fill="#000000" d="M49.5,101.7c-6.2,1-14.3,4.2-19.5,7.6c-2.9,1.9-8.1,7-10.6,10.2c-7.1,9.2-10.5,21.5-9.2,33c2.3,19,15.2,34.2,33.5,39.5c6.1,1.7,15.1,2.1,21.4,0.8c9.6-2,17.6-6.5,24.4-13.6c4.7-4.9,7.8-10,10-16.1c2.2-6.1,2.8-10.4,2.5-17.9c-0.3-9-2.6-15.9-7.6-23.7c-2.1-3.2-9.9-11.2-10.5-10.7c-0.2,0.2-0.8,1.5-1.4,3l-1,2.5l3.2,3.4c8.2,8.4,11.8,17.8,11.2,29.6c-0.3,6.7-1.1,9.8-3.8,15.6c-5.3,10.9-14.3,18.2-26.7,21.6c-4.4,1.2-14.9,1.1-19.6-0.3c-17.6-5-29.5-20.5-29.6-38.6c-0.1-19,13.1-35.3,31.8-39.5c3.8-0.8,13.8-0.8,17.1,0.2c1.4,0.4,2.6,0.7,2.7,0.7c0.5-0.6,2.3-5.5,2.1-5.7C67.6,102,54.8,100.9,49.5,101.7z"/><path fill="#000000" d="M193.1,101.8c-3.6,0.5-8.6,2-12.4,3.8c-1.7,0.8-3.1,1.5-3.2,1.6c-0.1,0.1,0.6,1.2,1.5,2.4c1,1.3,1.8,2.3,1.9,2.4c0,0,1.5-0.5,3.4-1.3c6.9-2.8,13.7-3.8,20.6-2.9c15.5,2.1,28.1,12.3,33,27.1c6.4,19.1-2.2,39.4-20.5,48.6c-16.3,8.2-37.1,3.5-48.5-10.8c-2.5-3.2-5.7-8.8-6.9-12.3l-0.6-1.5l-2.8,0.2c-1.5,0.1-2.9,0.3-3.1,0.5c-0.4,0.3,1.5,5.6,3,8.6c2.1,4.2,5.7,9,9.7,12.8c6.7,6.4,14.4,10.4,23.6,12.1c6,1.1,14.8,0.7,20.6-0.9c17.2-5,29.4-18.4,33.1-36.2c0.3-1.5,0.6-5.6,0.6-8.9c0-4.9-0.3-7-1.2-10.6c-2.2-8.2-5.6-14.5-11.3-20.5C222.9,104.8,208.1,99.6,193.1,101.8z"/><path fill="#000000" d="M48.4,112.4c-0.4,0.2,0.2,3.6,2,12.1c1.4,6.4,2.7,11.8,2.8,11.9c0.1,0.1,0.4-0.1,0.5-0.6c0.2-0.6-4.2-22.9-4.7-23.6C49,112.2,48.7,112.2,48.4,112.4z"/><path fill="#000000" d="M61.7,113.1c-0.4,1.8-2.6,14.3-2.6,14.7c0,0.2,0.4-0.1,0.8-0.8c1.1-1.6,3.5-15,2.6-15C62.2,112.1,61.8,112.5,61.7,113.1z"/><path fill="#000000" d="M192.1,112.4c-0.7,0.2,2.7,15.5,3.8,17.2c0.9,1.4,1.2,1.5,0.9,0.4c-0.1-0.4-1-4.6-2.1-9.2c-1-4.6-1.9-8.4-2-8.5C192.6,112.2,192.4,112.2,192.1,112.4z"/><path fill="#000000" d="M205.5,112.4c0,0.2-0.9,5.6-2.1,12.1c-1.6,9.2-2,11.9-1.5,12.4c0.5,0.5,1-2,2.8-11.9c1.2-6.9,2.3-12.7,2.3-12.8c0,0-0.3-0.1-0.7-0.1C205.8,112.1,205.5,112.2,205.5,112.4z"/><path fill="#000000" d="M211.5,128.2c-4.9,7.6-7.2,11.6-6.9,12c0.2,0.3,0.5,0.5,0.6,0.4c0.9-1.2,14.4-22.7,14.4-23C219.6,116,217.9,118.3,211.5,128.2z"/><path fill="#000000" d="M35.4,118.1c-0.3,0.5,14.1,21.4,14.8,21.4c0.2,0,0.4-0.2,0.4-0.5c0-0.5-13.8-20.7-14.5-21.1C35.9,117.8,35.6,117.9,35.4,118.1z"/><path fill="#000000" d="M80.4,129.9c-2.6,1.8-5.3,4-5.9,4.8l-1.1,1.5l1.5-0.9c8.6-5.6,12.3-8.7,10.7-8.7C85.3,126.6,83,128.1,80.4,129.9z"/><path fill="#000000" d="M217.7,134.3c-9.9,6.9-12.1,8.7-10.6,8.7c0.9,0,22.8-15.6,22.5-16c-0.2-0.2-0.4-0.4-0.6-0.4C228.9,126.7,223.8,130.1,217.7,134.3z"/><path fill="#000000" d="M25.6,128.3c-0.2,0.4,20.7,13.9,21.5,13.8c0.2,0,0.5-0.2,0.6-0.4c0.1-0.4-20.6-13.7-21.4-13.7C26.1,128,25.7,128.2,25.6,128.3z"/><path fill="#000000" d="M78.9,141.9c-9.2,2.1-12.3,3.1-11.6,3.8c0,0,5.5-1.1,12.2-2.6c7.9-1.7,12.1-2.9,12.1-3.3C91.5,139,91.1,139.1,78.9,141.9z"/><path fill="#000000" d="M220.9,142.2c-8.7,1.9-13,3.1-13,3.5c0,0.3,0.1,0.6,0.3,0.6c0.2,0,6.3-1.3,13.6-2.9c9.2-2,13.3-3.1,13.3-3.5C235.1,139.1,235.7,138.9,220.9,142.2z"/><path fill="#000000" d="M20.6,141.2c0,0.5,2.7,1.1,11.4,2.7c6.2,1.1,11.9,2.1,12.7,2.3c0.9,0.2,1.3,0,1.3-0.4c0-0.5-2.7-1.2-11.4-2.7c-6.2-1.1-11.9-2.1-12.6-2.3C21,140.6,20.6,140.8,20.6,141.2z"/><path fill="#000000" d="M64.1,149.1c-0.3,0.5-0.8,0.4,14.5,3.1c6.7,1.2,12.5,2,12.9,1.8c0.7-0.2,0.6-0.3-0.2-0.7c-1-0.4-24.6-4.6-26-4.6C64.7,148.7,64.2,148.8,64.1,149.1z"/><path fill="#000000" d="M207.8,149.1c0,0.5,1,0.8,15.6,3.3c11.7,2.1,12.2,2.1,12,1.3c-0.1-0.3-5.2-1.5-12.6-2.8C210,148.6,207.8,148.4,207.8,149.1z"/><path fill="#000000" d="M33.3,151.9c-6.8,1.5-12,2.9-12.2,3.2c-0.3,0.8,0.1,0.8,12.8-2c6.4-1.4,11.7-2.6,11.8-2.6s0.1-0.3,0.1-0.7c0-0.4-0.1-0.7-0.3-0.7C45.4,149.2,39.9,150.4,33.3,151.9z"/><path fill="#000000" d="M61.7,151.4c-0.3,0.6,24.3,16.1,24.8,15.6c0.2-0.2,0.4-0.5,0.2-0.6c-0.9-0.8-24-15.3-24.4-15.3C62.1,151,61.9,151.1,61.7,151.4z"/><path fill="#000000" d="M206.9,152.1c0,0.6,22.4,15.3,23.2,15.3c0.2,0,0.2-0.3,0.1-0.7c-0.1-0.5-22.4-15.3-23.2-15.3C207,151.5,206.9,151.8,206.9,152.1z"/><path fill="#000000" d="M37.7,159.6c-5.2,3.7-9.9,7-10.4,7.4c-0.6,0.4-0.9,0.9-0.7,1.3c0.2,0.4,3.7-1.8,10.9-6.8c9.5-6.7,11.3-8.1,10-8.4C47.3,153,42.9,156,37.7,159.6z"/><path fill="#000000" d="M59.8,153.3c-0.3,0.5,16,23.8,16.6,23.8c0.3,0,0.5-0.2,0.5-0.5c0-0.6-16-23.7-16.5-23.7C60.2,152.9,60,153.1,59.8,153.3z"/><path fill="#000000" d="M204.7,154.2c-0.4,0.2,2,4,7.2,11.6c4.3,6.1,7.9,11.3,8,11.4c0.1,0.1,0.4,0,0.6-0.2C221.1,176.4,205.4,153.8,204.7,154.2z"/><path fill="#000000" d="M57.2,155c0,0.7,6.1,27.6,6.3,27.8c1.1,1.1,0.6-2.5-2.1-14.4c-2.1-9.5-3.2-13.7-3.7-13.7C57.5,154.8,57.2,154.9,57.2,155z"/><path fill="#000000" d="M46.1,162.2c-2.4,3.8-5.6,8.8-7.1,11.2c-2,3.1-2.6,4.4-2.1,4.6c0.4,0.1,2.8-3.2,7.5-10.4c7.3-11.5,7.8-12.3,6.8-12.3C50.7,155.3,48.4,158.4,46.1,162.2z"/><path fill="#000000" d="M53.9,156.3c0,0.3-1.1,6.4-2.3,13.5c-1.7,9.7-2.2,13-1.7,13.2c0.3,0.2,0.6,0.2,0.7,0c0.1-0.4,4.8-26.8,4.8-27.1c0-0.1-0.3-0.2-0.7-0.2C54.3,155.7,53.9,156,53.9,156.3z"/><path fill="#000000" d="M198.2,156.1c-0.8,0.5-5.3,26.8-4.6,26.8c0.3,0,0.7-0.4,0.8-0.8c0.5-1.6,4.6-25.5,4.4-25.9C198.7,155.9,198.5,155.9,198.2,156.1z"/><path fill="#000000" d="M201.3,156c0,0.2,1.3,6.3,2.9,13.6c2.1,9.4,3.1,13.3,3.5,13.3c0.8,0,0.9,0.8-2.6-15c-1.6-7.1-2.9-12-3.2-12.2C201.6,155.7,201.3,155.8,201.3,156z"/><path fill="#000000" d="M192.5,158.1c-5.8,8.5-12.3,19.3-11.9,19.8c0.3,0.3,1.1-0.6,2.5-2.8c1.1-1.8,4.2-6.5,6.7-10.5c2.6-4,4.8-7.6,5.1-7.9c0.2-0.3,0.1-0.6-0.4-0.6C194.1,156.2,193.2,157.1,192.5,158.1z"/><path fill="#000000" d="M177.7,162.3c-6.8,4.7-8.3,6.1-6.9,6.1c0.4,0,11.8-7.7,15.4-10.4l1.1-0.8h-1.1C185.6,157.1,182.1,159.2,177.7,162.3z"/></g></g></g>
</svg>